<svg width="184" height="31" viewBox="0 0 184 31" fill="none" xmlns="http://www.w3.org/2000/svg">
<path d="M55.2292 17.5664C55.0885 18.7696 54.6432 19.6992 53.8932 20.3555C53.1484 21.0065 52.1562 21.3321 50.9167 21.3321C49.5729 21.3321 48.4948 20.8503 47.6823 19.8867C46.875 18.9232 46.4713 17.6341 46.4713 16.0196V14.9258C46.4713 13.8685 46.6588 12.9388 47.0338 12.1367C47.4141 11.3347 47.9505 10.7201 48.6432 10.293C49.3359 9.86071 50.138 9.64456 51.0495 9.64456C52.2578 9.64456 53.2266 9.9831 53.9557 10.6602C54.6849 11.3321 55.1094 12.2644 55.2292 13.4571H53.7213C53.5911 12.5508 53.3073 11.8946 52.8698 11.4883C52.4375 11.0821 51.8307 10.8789 51.0495 10.8789C50.0911 10.8789 49.3385 11.2331 48.7917 11.9414C48.25 12.6498 47.9792 13.6576 47.9792 14.9649V16.0664C47.9792 17.3008 48.237 18.2826 48.7526 19.0117C49.2682 19.7409 49.9896 20.1055 50.9167 20.1055C51.75 20.1055 52.388 19.918 52.8307 19.543C53.2786 19.1628 53.5755 18.5039 53.7213 17.5664H55.2292ZM61.9245 19.2617L64.7995 12.7227H66.6042V21.1758H65.1588V15.0274L62.4245 21.1758H61.4245L58.6354 14.8946V21.1758H57.1901V12.7227H59.0651L61.9245 19.2617ZM68.5495 16.8711C68.5495 16.043 68.7109 15.2982 69.0338 14.6367C69.362 13.9753 69.8151 13.4649 70.3932 13.1055C70.9766 12.7461 71.6406 12.5664 72.3854 12.5664C73.5364 12.5664 74.4661 12.9649 75.1745 13.7617C75.888 14.5586 76.2448 15.6185 76.2448 16.9414V17.043C76.2448 17.8659 76.0859 18.6055 75.7682 19.2617C75.4557 19.9128 75.0052 20.4206 74.4167 20.7852C73.8333 21.1498 73.1614 21.3321 72.401 21.3321C71.2552 21.3321 70.3255 20.9336 69.612 20.1367C68.9036 19.3399 68.5495 18.2852 68.5495 16.9727V16.8711ZM70.0026 17.043C70.0026 17.9805 70.2187 18.7331 70.651 19.3008C71.0885 19.8685 71.6719 20.1524 72.401 20.1524C73.1354 20.1524 73.7187 19.8659 74.151 19.293C74.5833 18.7149 74.7995 17.9076 74.7995 16.8711C74.7995 15.944 74.5781 15.194 74.1354 14.6211C73.6979 14.043 73.1146 13.7539 72.3854 13.7539C71.6719 13.7539 71.0963 14.0378 70.6588 14.6055C70.2213 15.1732 70.0026 15.9857 70.0026 17.043ZM84.1667 13.8946H81.3307V21.1758H79.8854V13.8946H77.1042V12.7227H84.1667V13.8946ZM92.7135 17.043C92.7135 18.3295 92.4193 19.3659 91.8307 20.1524C91.2422 20.9388 90.4453 21.3321 89.4401 21.3321C88.4141 21.3321 87.6068 21.0065 87.0182 20.3555V24.4258H85.5729V12.7227H86.8932L86.9635 13.6602C87.5521 12.931 88.3698 12.5664 89.4167 12.5664C90.4323 12.5664 91.2344 12.9492 91.8229 13.7149C92.4167 14.4805 92.7135 15.5456 92.7135 16.9102V17.043ZM91.2682 16.8789C91.2682 15.9258 91.0651 15.1732 90.6588 14.6211C90.2526 14.069 89.6953 13.793 88.987 13.793C88.112 13.793 87.4557 14.181 87.0182 14.9571V18.9961C87.4505 19.767 88.112 20.1524 89.0026 20.1524C89.6953 20.1524 90.2448 19.8789 90.651 19.3321C91.0625 18.78 91.2682 17.9623 91.2682 16.8789ZM98.0651 21.3321C96.9193 21.3321 95.987 20.9571 95.2682 20.2071C94.5495 19.4519 94.1901 18.444 94.1901 17.1836V16.918C94.1901 16.0795 94.3489 15.3321 94.6667 14.6758C94.9896 14.0144 95.4375 13.4987 96.0104 13.1289C96.5885 12.7539 97.2135 12.5664 97.8854 12.5664C98.9844 12.5664 99.8385 12.9284 100.448 13.6524C101.057 14.3763 101.362 15.4128 101.362 16.7617V17.3633H95.6354C95.6562 18.1966 95.8984 18.8711 96.362 19.3867C96.8307 19.8972 97.4245 20.1524 98.1432 20.1524C98.6536 20.1524 99.0859 20.0482 99.4401 19.8399C99.7943 19.6315 100.104 19.3555 100.37 19.0117L101.253 19.6992C100.544 20.7878 99.4818 21.3321 98.0651 21.3321ZM97.8854 13.7539C97.3021 13.7539 96.8125 13.9675 96.4167 14.3946C96.0208 14.8164 95.776 15.4102 95.6823 16.1758H99.9167V16.0664C99.875 15.3321 99.6771 14.7644 99.3229 14.3633C98.9687 13.9571 98.4896 13.7539 97.8854 13.7539ZM109.229 13.8946H106.393V21.1758H104.948V13.8946H102.167V12.7227H109.229V13.8946ZM112.214 15.6367H114.409C115.367 15.6472 116.125 15.8972 116.682 16.3867C117.24 16.8763 117.518 17.5404 117.518 18.3789C117.518 19.2227 117.232 19.8998 116.659 20.4102C116.086 20.9206 115.315 21.1758 114.346 21.1758H110.768V12.7227H112.214V15.6367ZM112.214 16.8164V19.9961H114.362C114.904 19.9961 115.323 19.8581 115.62 19.5821C115.917 19.3008 116.065 18.918 116.065 18.4336C116.065 17.9649 115.919 17.5821 115.628 17.2852C115.341 16.9831 114.937 16.8269 114.417 16.8164H112.214ZM129.573 13.8946H126.737V21.1758H125.292V13.8946H122.51V12.7227H129.573V13.8946ZM138.12 17.043C138.12 18.3295 137.826 19.3659 137.237 20.1524C136.648 20.9388 135.852 21.3321 134.846 21.3321C133.82 21.3321 133.013 21.0065 132.424 20.3555V24.4258H130.979V12.7227H132.299L132.37 13.6602C132.958 12.931 133.776 12.5664 134.823 12.5664C135.839 12.5664 136.641 12.9492 137.229 13.7149C137.823 14.4805 138.12 15.5456 138.12 16.9102V17.043ZM136.674 16.8789C136.674 15.9258 136.471 15.1732 136.065 14.6211C135.659 14.069 135.102 13.793 134.393 13.793C133.518 13.793 132.862 14.181 132.424 14.9571V18.9961C132.857 19.767 133.518 20.1524 134.409 20.1524C135.102 20.1524 135.651 19.8789 136.057 19.3321C136.469 18.78 136.674 17.9623 136.674 16.8789ZM143.471 21.3321C142.326 21.3321 141.393 20.9571 140.674 20.2071C139.956 19.4519 139.596 18.444 139.596 17.1836V16.918C139.596 16.0795 139.755 15.3321 140.073 14.6758C140.396 14.0144 140.844 13.4987 141.417 13.1289C141.995 12.7539 142.62 12.5664 143.292 12.5664C144.391 12.5664 145.245 12.9284 145.854 13.6524C146.464 14.3763 146.768 15.4128 146.768 16.7617V17.3633H141.042C141.062 18.1966 141.305 18.8711 141.768 19.3867C142.237 19.8972 142.831 20.1524 143.549 20.1524C144.06 20.1524 144.492 20.0482 144.846 19.8399C145.201 19.6315 145.51 19.3555 145.776 19.0117L146.659 19.6992C145.951 20.7878 144.888 21.3321 143.471 21.3321ZM143.292 13.7539C142.708 13.7539 142.219 13.9675 141.823 14.3946C141.427 14.8164 141.182 15.4102 141.089 16.1758H145.323V16.0664C145.281 15.3321 145.083 14.7644 144.729 14.3633C144.375 13.9571 143.896 13.7539 143.292 13.7539ZM153.917 12.7227H155.362V21.1758H153.917V15.0117L150.018 21.1758H148.573V12.7227H150.018V18.8946L153.917 12.7227ZM154.307 9.64456C154.307 10.2748 154.091 10.7826 153.659 11.168C153.232 11.5482 152.669 11.7383 151.971 11.7383C151.273 11.7383 150.708 11.5456 150.276 11.1602C149.844 10.7748 149.628 10.2696 149.628 9.64456H150.807C150.807 10.0091 150.906 10.2956 151.104 10.5039C151.302 10.7071 151.591 10.8086 151.971 10.8086C152.336 10.8086 152.62 10.7071 152.823 10.5039C153.031 10.3008 153.135 10.0144 153.135 9.64456H154.307ZM164.612 12.7227V21.1758H163.159V13.918H160.284L160.112 17.0821C160.018 18.5352 159.773 19.5742 159.378 20.1992C158.987 20.8242 158.365 21.1498 157.51 21.1758H156.932V19.9024L157.346 19.8711C157.815 19.819 158.151 19.5482 158.354 19.0586C158.557 18.569 158.687 17.6628 158.745 16.3399L158.901 12.7227H164.612ZM170.44 21.3321C169.294 21.3321 168.362 20.9571 167.643 20.2071C166.924 19.4519 166.565 18.444 166.565 17.1836V16.918C166.565 16.0795 166.724 15.3321 167.042 14.6758C167.365 14.0144 167.812 13.4987 168.385 13.1289C168.964 12.7539 169.589 12.5664 170.26 12.5664C171.359 12.5664 172.214 12.9284 172.823 13.6524C173.432 14.3763 173.737 15.4128 173.737 16.7617V17.3633H168.01C168.031 18.1966 168.273 18.8711 168.737 19.3867C169.206 19.8972 169.799 20.1524 170.518 20.1524C171.029 20.1524 171.461 20.0482 171.815 19.8399C172.169 19.6315 172.479 19.3555 172.745 19.0117L173.628 19.6992C172.919 20.7878 171.857 21.3321 170.44 21.3321ZM170.26 13.7539C169.677 13.7539 169.187 13.9675 168.792 14.3946C168.396 14.8164 168.151 15.4102 168.057 16.1758H172.292V16.0664C172.25 15.3321 172.052 14.7644 171.698 14.3633C171.344 13.9571 170.865 13.7539 170.26 13.7539ZM182.557 17.043C182.557 18.3295 182.263 19.3659 181.674 20.1524C181.086 20.9388 180.289 21.3321 179.284 21.3321C178.258 21.3321 177.451 21.0065 176.862 20.3555V24.4258H175.417V12.7227H176.737L176.807 13.6602C177.396 12.931 178.214 12.5664 179.26 12.5664C180.276 12.5664 181.078 12.9492 181.667 13.7149C182.26 14.4805 182.557 15.5456 182.557 16.9102V17.043ZM181.112 16.8789C181.112 15.9258 180.909 15.1732 180.503 14.6211C180.096 14.069 179.539 13.793 178.831 13.793C177.956 13.793 177.299 14.181 176.862 14.9571V18.9961C177.294 19.767 177.956 20.1524 178.846 20.1524C179.539 20.1524 180.089 19.8789 180.495 19.3321C180.906 18.78 181.112 17.9623 181.112 16.8789Z" fill="white"/>
<circle cx="15.5417" cy="15.6758" r="15" fill="white"/>
<path d="M19.0996 14.934L14.6618 11.8959C14.4569 11.7555 14.2504 11.6812 14.0788 11.6812C13.7469 11.6812 13.5417 11.9475 13.5417 12.3933V18.9594C13.5417 19.4047 13.7467 19.6705 14.0777 19.6705C14.2496 19.6705 14.4528 19.5961 14.6582 19.4553L19.098 16.4173C19.3835 16.2216 19.5417 15.9583 19.5417 15.6755C19.5417 15.3929 19.3854 15.1296 19.0996 14.934Z" fill="black"/>
</svg>
